<svg height="511pt" viewBox="0 0 511.99897 511" width="511pt" xmlns="http://www.w3.org/2000/svg"><path d="m15.003906 512.304688c-3.878906 0-7.726562-1.5-10.628906-4.410157-5.070312-5.089843-5.820312-13.054687-1.792969-19.003906l120.585938-178.019531-72.910157-72.90625c-3-3-4.589843-7.128906-4.375-11.363282.210938-4.238281 2.210938-8.183593 5.496094-10.867187 19.628906-16.023437 44.449219-24.238281 69.902344-23.132813 17.839844.777344 34.90625 6.105469 49.707031 15.328126 8.8125-6.703126 17.621094-13.414063 26.433594-20.125 15.152344-11.539063 30.304687-23.078126 45.460937-34.601563 12.363282-9.40625 24.726563-18.816406 37.09375-28.234375 9.828126-7.480469 19.65625-14.964844 29.488282-22.445312l-13.777344-13.773438c-6.941406-6.945312-10.605469-16.757812-10.046875-26.925781.535156-9.691407 4.722656-18.925781 11.792969-25.996094l30.933594-30.933594c2.8125-2.8125 6.628906-4.394531 10.605468-4.394531 3.976563 0 7.792969 1.582031 10.605469 4.394531l158.027344 158.023438c5.859375 5.859375 5.859375 15.359375 0 21.214843l-30.933594 30.933594c-7.070313 7.070313-16.304687 11.261719-25.996094 11.792969-10.15625.570313-19.980469-3.101563-26.925781-10.046875l-13.765625-13.765625-9.589844 12.601563c-13.699219 18-27.398437 36-41.089843 53.984374-18.238282 23.957032-36.488282 47.925782-54.734376 71.882813 9.226563 14.800781 14.550782 31.863281 15.328126 49.707031 1.105468 25.445313-7.109376 50.273438-23.132813 69.902344-2.683594 3.285156-6.628906 5.28125-10.867187 5.492188-4.234376.210937-8.363282-1.375-11.363282-4.375l-72.542968-72.542969-178.625 120.054687c-2.546876 1.714844-5.460938 2.550782-8.363282 2.550782zm129.765625-179.828126-74.03125 109.292969 109.632813-73.6875zm-60.148437-102.578124 197.980468 197.980468c13.125-27.246094 8.359376-61.101562-13.433593-83.042968l-101.503907-101.503907c-21.941406-21.792969-55.796874-26.558593-83.042968-13.433593zm109.878906-2.160157 90.265625 90.265625c16.890625-22.175781 33.785156-44.367187 50.667969-66.542968 13.691406-17.984376 27.390625-35.980469 41.085937-53.984376l12.058594-15.839843-57.707031-57.703125c-10.90625 8.300781-21.816406 16.605468-32.722656 24.90625-12.367188 9.417968-24.734376 18.835937-37.105469 28.242187-15.148438 11.523438-30.296875 23.058594-45.445313 34.59375-7.03125 5.355469-14.066406 10.707031-21.097656 16.0625zm224.625-57.980469 25.839844 25.839844c1.199218 1.199219 2.875 1.371094 4.0625 1.304688 2.273437-.125 4.617187-1.234375 6.429687-3.050782l20.328125-20.324218-136.8125-136.8125-20.328125 20.328125c-1.8125 1.8125-2.921875 4.15625-3.046875 6.429687-.066406 1.191406.105469 2.863282 1.304688 4.0625l102.152344 102.152344c.023437.023438.046874.046875.070312.070312zm0 0"/></svg>